# xmcd
#
# Track frame offsets:
#	150
#	18560
#	27390
#	40260
#	55590
#	67790
#	78900
#	92435
#	103070
#	119325
#	135420
#	148660
#	156065
#	164715
#	179580
#
# Disc length: 2517 seconds
#
# Revision: 0
# Processed by: cddbd v1.5.2PL0 Copyright (c) Steve Scherf et al.
# Submitted via: audiograbber 1.81.03
#
DISCID=c209d30f
DTITLE=Number Nine - Number 9
DYEAR=1993
DGENRE=Rock and Roll
TTITLE0=Hey Joe
TTITLE1=If I Ever
TTITLE2=Ruby
TTITLE3=Red Light
TTITLE4=Proud Mary
TTITLE5=That's Why
TTITLE6=The Stranger
TTITLE7=Mona Lisa
TTITLE8=Simply Aware
TTITLE9=Dream Baby
TTITLE10=Pieces Of My Life
TTITLE11=This Time I've Further More Than She Loves Me
TTITLE12=Dark Moon
TTITLE13=Sitting And Thinking
TTITLE14=Red Cadillac And A Black Moustache
EXTD=Paul Ansell's Number Nine
EXTT0=
EXTT1=
EXTT2=
EXTT3=
EXTT4=
EXTT5=
EXTT6=
EXTT7=
EXTT8=
EXTT9=
EXTT10=
EXTT11=
EXTT12=
EXTT13=
EXTT14=
PLAYORDER=
